<?xml version="1.0" encoding="utf-8"?>
<!-- Generator: Adobe Illustrator 27.0.1, SVG Export Plug-In . SVG Version: 6.00 Build 0)  -->
<svg version="1.1" xmlns="http://www.w3.org/2000/svg" xmlns:xlink="http://www.w3.org/1999/xlink" x="0px" y="0px"
	 viewBox="0 0 3000 3000" style="enable-background:new 0 0 3000 3000;" xml:space="preserve">
<style type="text/css">
	.st0{display:none;}
	.st1{display:inline;fill:none;stroke:#1A1A1A;stroke-width:2;stroke-miterlimit:10;}
	.st2{display:none;fill:none;stroke:#1A1A1A;stroke-width:10;stroke-miterlimit:10;}
	.st3{display:none;fill:none;stroke:#1A1A1A;stroke-width:4;stroke-miterlimit:10;}
	.st4{fill:#E6E6E6;}
	.st5{fill:#76EE1E;}
</style>
<g id="Camada_1">
	
		<image style="display:none;overflow:visible;opacity:0.3;" width="548" height="548" xlink:href="17ED1F58.jpg"  transform="matrix(3.4139 0 0 3.4139 564.5833 564.5833)">
	</image>
	<g class="st0">
		<rect x="564.6" y="564.6" class="st1" width="1870.8" height="1870.8"/>
		<line class="st1" x1="564.6" y1="2248.3" x2="2435.4" y2="2248.3"/>
		<line class="st1" x1="564.6" y1="2061.2" x2="2435.4" y2="2061.2"/>
		<line class="st1" x1="564.6" y1="1874.2" x2="2435.4" y2="1874.2"/>
		<line class="st1" x1="564.6" y1="1687.1" x2="2435.4" y2="1687.1"/>
		<line class="st1" x1="564.6" y1="1500" x2="2435.4" y2="1500"/>
		<line class="st1" x1="564.6" y1="1312.9" x2="2435.4" y2="1312.9"/>
		<line class="st1" x1="564.6" y1="1125.8" x2="2435.4" y2="1125.8"/>
		<line class="st1" x1="564.6" y1="938.8" x2="2435.4" y2="938.8"/>
		<line class="st1" x1="564.6" y1="751.7" x2="2435.4" y2="751.7"/>
		<line class="st1" x1="2248.3" y1="564.6" x2="2248.3" y2="2435.4"/>
		<line class="st1" x1="2061.2" y1="564.6" x2="2061.2" y2="2435.4"/>
		<line class="st1" x1="1874.2" y1="564.6" x2="1874.2" y2="2435.4"/>
		<line class="st1" x1="1687.1" y1="564.6" x2="1687.1" y2="2435.4"/>
		<line class="st1" x1="1500" y1="564.6" x2="1500" y2="2435.4"/>
		<line class="st1" x1="1312.9" y1="564.6" x2="1312.9" y2="2435.4"/>
		<line class="st1" x1="1125.8" y1="564.6" x2="1125.8" y2="2435.4"/>
		<line class="st1" x1="938.8" y1="564.6" x2="938.8" y2="2435.4"/>
		<line class="st1" x1="751.7" y1="564.6" x2="751.7" y2="2435.4"/>
	</g>
	<path class="st2" d="M1114.1,1208.9c-0.1,3.3-0.1,6.6-0.1,10h-7.2C1109.2,1215.5,1111.6,1212.2,1114.1,1208.9z"/>
	<path class="st2" d="M1218.8,1886v7.2c-3.3-2.4-6.6-4.8-9.9-7.3C1212.2,1886,1215.5,1886,1218.8,1886z"/>
	<path class="st2" d="M1672.1,1500c0,25.6-5.6,50-15.7,71.8c-17.2,37.3-47.3,67.5-84.7,84.6c-21.8,10-46.2,15.6-71.8,15.6
		s-49.9-5.6-71.8-15.6c-37.4-17.2-67.5-47.3-84.7-84.6c-10.1-21.9-15.7-46.2-15.7-71.8c0-25.6,5.6-49.9,15.6-71.7
		c17.2-37.4,47.4-67.6,84.8-84.8c21.8-10,46.2-15.6,71.8-15.6s49.9,5.6,71.8,15.6c37.4,17.2,67.6,47.4,84.8,84.8
		C1666.5,1450.1,1672.1,1474.4,1672.1,1500z"/>
	<path class="st2" d="M1791.1,1114.1c-3.3-0.1-6.6-0.1-9.9-0.1v-7.2C1784.5,1109.2,1787.8,1111.6,1791.1,1114.1z"/>
	<path class="st2" d="M1893.1,1781.2c-2.4,3.3-4.8,6.6-7.2,9.8c0.1-3.3,0.1-6.5,0.1-9.8H1893.1z"/>
	<path class="st2" d="M1672.1,1500c0,25.6-5.6,50-15.7,71.8c-20.2,9-41.2,16.2-63,21.7c-29.9,7.4-61.2,11.4-93.4,11.4
		s-63.5-3.9-93.4-11.4c-21.8-5.4-42.9-12.7-63-21.7c-10.1-21.9-15.7-46.2-15.7-71.8c0-25.6,5.6-49.9,15.6-71.7
		c17.2-37.4,47.4-67.6,84.8-84.8c21.8-10,46.2-15.6,71.8-15.6s49.9,5.6,71.8,15.6c37.4,17.2,67.6,47.4,84.8,84.8
		C1666.5,1450.1,1672.1,1474.4,1672.1,1500z"/>
	<path class="st2" d="M1874.6,1125.4c-26.8-6.7-54.8-10.5-83.5-11.2c-3.3-0.1-6.6-0.1-9.9-0.1v-7.2
		c-56.8-40.7-122.9-69.4-194.4-82.4l-180.2-180.2c29.9-7.4,61.2-11.4,93.4-11.4c110.9,0,210.8,46.7,281.2,121.6
		C1825.7,1001.8,1858.4,1060.3,1874.6,1125.4z"/>
	<path class="st2" d="M1672.1,1500c0,25.6-5.6,50-15.7,71.8c-17.2,37.3-47.3,67.5-84.7,84.6c-21.8,10-46.2,15.6-71.8,15.6
		s-49.9-5.6-71.8-15.6c-37.4-17.2-67.5-47.3-84.7-84.6c-10.1-21.9-15.7-46.2-15.7-71.8c0-25.6,5.6-49.9,15.6-71.7
		c20.2-9,41.3-16.3,63.1-21.7c29.9-7.4,61.2-11.4,93.4-11.4s63.5,3.9,93.4,11.4c21.8,5.4,42.9,12.7,63.1,21.7
		C1666.5,1450.1,1672.1,1474.4,1672.1,1500z"/>
	<path class="st2" d="M1593.4,2155.9c-29.9,7.4-61.2,11.4-93.4,11.4c-110.9,0-210.8-46.7-281.2-121.6
		c-44.6-47.3-77.3-105.9-93.4-171.1c26.8,6.7,54.8,10.5,83.5,11.3c3.3,0.1,6.6,0.1,9.9,0.1v7.2c56.8,40.7,122.8,69.4,194.3,82.4
		L1593.4,2155.9z"/>
	<path class="st2" d="M1672.1,1500c0,25.6-5.6,50-15.7,71.8c-17.2,37.3-47.3,67.5-84.7,84.6c-21.8,10-46.2,15.6-71.8,15.6
		s-49.9-5.6-71.8-15.6c-8.9-20.2-16.2-41.2-21.6-63c-7.5-29.9-11.4-61.3-11.4-93.5c0-32.2,3.9-63.5,11.4-93.4
		c5.4-21.8,12.7-42.9,21.7-63.1c21.8-10,46.2-15.6,71.8-15.6s49.9,5.6,71.8,15.6c37.4,17.2,67.6,47.4,84.8,84.8
		C1666.5,1450.1,1672.1,1474.4,1672.1,1500z"/>
	<path class="st2" d="M2167.2,1500c0,110.9-46.8,210.9-121.6,281.2c-47.3,44.5-105.9,77.2-170.9,93.4c6.7-26.8,10.5-54.8,11.2-83.5
		c0.1-3.3,0.1-6.5,0.1-9.8h7.1c40.7-56.8,69.5-122.8,82.4-194.3l180.3-180.3C2163.2,1436.5,2167.2,1467.8,2167.2,1500z"/>
	<path class="st2" d="M1125.4,1125.4c-6.7,26.8-10.6,54.8-11.3,83.5c0,0,0,0,0,0c-0.1,3.3-0.1,6.6-0.1,10h-7.2
		c-40.7,56.8-69.4,122.9-82.4,194.4l-180.2,180.2c-7.5-29.9-11.4-61.2-11.4-93.5c0-110.8,46.7-210.7,121.5-281.1
		C1001.7,1174.3,1060.3,1141.6,1125.4,1125.4z"/>
	<path class="st2" d="M1604.8,1500c0,32.2-4,63.6-11.4,93.5c-5.4,21.8-12.7,42.8-21.6,63c-21.8,10-46.2,15.6-71.8,15.6
		s-49.9-5.6-71.8-15.6c-37.4-17.2-67.5-47.3-84.7-84.6c-10.1-21.9-15.7-46.2-15.7-71.8c0-25.6,5.6-49.9,15.6-71.7
		c17.2-37.4,47.4-67.6,84.8-84.8c21.8-10,46.2-15.6,71.8-15.6s49.9,5.6,71.8,15.6c9,20.2,16.3,41.3,21.7,63.1
		C1600.9,1436.5,1604.8,1467.8,1604.8,1500z"/>
	<path class="st2" d="M1672.1,1500c0,25.6-5.6,50-15.7,71.8c-17.2,37.3-47.3,67.5-84.7,84.6c-21.8,10-46.2,15.6-71.8,15.6
		s-49.9-5.6-71.8-15.6c-37.4-17.2-67.5-47.3-84.7-84.6c-10.1-21.9-15.7-46.2-15.7-71.8c0-25.6,5.6-49.9,15.6-71.7
		c17.2-37.4,47.4-67.6,84.8-84.8c21.8-10,46.2-15.6,71.8-15.6s49.9,5.6,71.8,15.6c37.4,17.2,67.6,47.4,84.8,84.8
		C1666.5,1450.1,1672.1,1474.4,1672.1,1500z"/>
	<polyline class="st2" points="566.3,1871.3 656.4,1781.2 844.2,1593.5 	"/>
	<polyline class="st2" points="1593.4,2155.9 1781.2,2343.6 1873.6,2436 	"/>
	<polyline class="st2" points="2155.8,1406.6 2343.6,1218.9 2432.7,1129.7 	"/>
	<polyline class="st2" points="1132.5,570.2 1218.8,656.5 1406.6,844.3 	"/>
	<line class="st3" x1="1781.2" y1="564.6" x2="1781.2" y2="2436"/>
	<line class="st3" x1="2435.4" y1="1781.2" x2="566.3" y2="1781.2"/>
	<line class="st3" x1="1218.8" y1="2436" x2="1218.8" y2="570.2"/>
	<line class="st3" x1="566.3" y1="1218.9" x2="2435.4" y2="1218.9"/>
	<g>
		<path class="st4" d="M2264.7,1106c-66.3-62.5-148.5-108.3-239.8-131c-37.6-9.3-76.8-14.8-117-15.8c-47.5-34-113.4-72.2-168.9-93.2
			c-11.1-0.6-22.3-0.9-33.5-0.9c-206.7,0-489.2,107.5-608.3,277.5l13.8-21.6c27.4-42.9,59.7-83.1,96.1-119.5
			c64.7-64.7,140.1-115.5,224-151c51.9-22,105.8-37.4,161-46.4L1369.1,581c-102.3,25.4-193.2,80-263.1,154.4
			c-62.4,66.3-108.2,148.3-130.9,239.5c-9.4,37.6-14.8,76.8-15.8,117.1c0,0,0,0,0,0c0,0,0,0,0,0l0,0
			c-33.5,46.8-71.5,112.1-92.4,166.8c-1.1,15.3-1.7,30.7-1.7,46.2c0,216.6,115.6,502.3,298.4,620.1l-21.1-12.4
			c-51.1-30.1-98.5-66.8-140.9-109.2c-64.7-64.7-115.5-140.1-151-224c-23.2-54.8-39.1-111.7-47.8-170.2L581,1630.9
			c25.4,102.4,80.1,193.2,154.5,263.1c66.3,62.4,148.3,108.2,239.5,130.8c37.6,9.4,76.8,14.8,117.1,15.8
			c47.8,34.3,114.2,72.7,170.2,93.7c7.5,0.3,15,0.4,22.5,0.4c173.2,0,412.9-76.7,553.7-198.6l0,0c-17.1,21.7-35.6,42.5-55.3,62.2
			c-64.7,64.7-140.1,115.5-224,151c-49.4,20.9-100.5,35.9-152.8,45l224.6,224.6c102.3-25.4,193.2-80,263.1-154.4
			c62.4-66.3,108.3-148.4,130.9-239.7c9.3-37.6,14.8-76.8,15.8-117c34-47.4,72.1-113.1,93-168.5c0.7-12.1,1-24.2,1-36.4
			c0-209.7-109.9-493.2-283.8-612l21.4,13.3c45.4,28.3,87.8,62,126,100.2c64.7,64.7,115.5,140.1,151,224
			c22.3,52.6,37.9,107.3,46.7,163.3l222.8-222.8C2393.6,1266.8,2339.1,1175.9,2264.7,1106z M1639.1,1740.9h-278.1L1221.9,1500
			l139.1-240.9h278.1l139.1,240.9L1639.1,1740.9z"/>
		<g>
			<path class="st5" d="M1583.9,1612.7c3.9,0,5.8-4.1,6.6-13.4l19.8-251.4c-25.3-18.4-55.3-30.6-87.9-34.5
				c14,11.5,22.1,35.4,26.8,71.9l28,215.2C1578.4,1609.8,1580.6,1612.7,1583.9,1612.7z"/>
			<path class="st5" d="M1473.3,1313.9c-32.7,4.7-62.7,17.7-87.7,37l18.1,248.5c0.6,9.4,2.8,13.4,6.6,13.4c3.3,0,5.5-2.9,6.6-12.3
				l28.5-212.3C1450.7,1350.1,1459.2,1325.8,1473.3,1313.9z"/>
			<path class="st5" d="M1658.4,1398.9l-19,226.6c30.1-33.3,48.4-77.4,48.4-125.8C1687.8,1462.6,1677,1428.1,1658.4,1398.9z"/>
			<path class="st5" d="M1337.2,1406.2c-15.9,27.5-25,59.5-25,93.5c0,44.6,15.6,85.5,41.6,117.8L1337.2,1406.2z"/>
			<path class="st5" d="M1531.3,1629.1l-26.9-218.1c-1.1-8.8-3-11.7-6.1-11.7c-3,0-5,2.9-6.1,11.7l-29.1,218.1
				c-2.8,21.3-6.8,38.6-12,51.9c15.6,4.2,31.9,6.4,48.8,6.4c15,0,29.6-1.8,43.6-5.1C1538.1,1668.7,1534.1,1651,1531.3,1629.1z"/>
		</g>
	</g>
</g>
<g id="Camada_2">
</g>
</svg>
