<?xml version="1.0" encoding="utf-8"?>
<!-- Generator: Adobe Illustrator 27.0.1, SVG Export Plug-In . SVG Version: 6.00 Build 0)  -->
<svg version="1.1" xmlns="http://www.w3.org/2000/svg" xmlns:xlink="http://www.w3.org/1999/xlink" x="0px" y="0px"
	 viewBox="0 0 3000 3000" style="enable-background:new 0 0 3000 3000;" xml:space="preserve">
<style type="text/css">
	.st0{display:none;}
	.st1{display:inline;fill:none;stroke:#1A1A1A;stroke-width:2;stroke-miterlimit:10;}
	.st2{display:none;fill:none;stroke:#1A1A1A;stroke-width:10;stroke-miterlimit:10;}
	.st3{display:none;fill:none;stroke:#1A1A1A;stroke-width:4;stroke-miterlimit:10;}
	.st4{fill:#E6E6E6;}
	.st5{fill:#76EE1E;}
</style>
<g id="Camada_1">
	
		<image style="display:none;overflow:visible;opacity:0.3;" width="548" height="548" xlink:href="A233D014.jpg"  transform="matrix(3.4139 0 0 3.4139 564.5833 564.5833)">
	</image>
	<g class="st0">
		<rect x="564.6" y="564.6" class="st1" width="1870.8" height="1870.8"/>
		<line class="st1" x1="564.6" y1="2248.3" x2="2435.4" y2="2248.3"/>
		<line class="st1" x1="564.6" y1="2061.2" x2="2435.4" y2="2061.2"/>
		<line class="st1" x1="564.6" y1="1874.2" x2="2435.4" y2="1874.2"/>
		<line class="st1" x1="564.6" y1="1687.1" x2="2435.4" y2="1687.1"/>
		<line class="st1" x1="564.6" y1="1500" x2="2435.4" y2="1500"/>
		<line class="st1" x1="564.6" y1="1312.9" x2="2435.4" y2="1312.9"/>
		<line class="st1" x1="564.6" y1="1125.8" x2="2435.4" y2="1125.8"/>
		<line class="st1" x1="564.6" y1="938.8" x2="2435.4" y2="938.8"/>
		<line class="st1" x1="564.6" y1="751.7" x2="2435.4" y2="751.7"/>
		<line class="st1" x1="2248.3" y1="564.6" x2="2248.3" y2="2435.4"/>
		<line class="st1" x1="2061.2" y1="564.6" x2="2061.2" y2="2435.4"/>
		<line class="st1" x1="1874.2" y1="564.6" x2="1874.2" y2="2435.4"/>
		<line class="st1" x1="1687.1" y1="564.6" x2="1687.1" y2="2435.4"/>
		<line class="st1" x1="1500" y1="564.6" x2="1500" y2="2435.4"/>
		<line class="st1" x1="1312.9" y1="564.6" x2="1312.9" y2="2435.4"/>
		<line class="st1" x1="1125.8" y1="564.6" x2="1125.8" y2="2435.4"/>
		<line class="st1" x1="938.8" y1="564.6" x2="938.8" y2="2435.4"/>
		<line class="st1" x1="751.7" y1="564.6" x2="751.7" y2="2435.4"/>
	</g>
	<path class="st2" d="M1114.1,1208.9c-0.1,3.3-0.1,6.6-0.1,10h-7.2C1109.2,1215.5,1111.6,1212.2,1114.1,1208.9z"/>
	<path class="st2" d="M1218.8,1886v7.2c-3.3-2.4-6.6-4.8-9.9-7.3C1212.2,1886,1215.5,1886,1218.8,1886z"/>
	<path class="st2" d="M1672.1,1500c0,25.6-5.6,50-15.7,71.8c-17.2,37.3-47.3,67.5-84.7,84.6c-21.8,10-46.2,15.6-71.8,15.6
		s-49.9-5.6-71.8-15.6c-37.4-17.2-67.5-47.3-84.7-84.6c-10.1-21.9-15.7-46.2-15.7-71.8c0-25.6,5.6-49.9,15.6-71.7
		c17.2-37.4,47.4-67.6,84.8-84.8c21.8-10,46.2-15.6,71.8-15.6s49.9,5.6,71.8,15.6c37.4,17.2,67.6,47.4,84.8,84.8
		C1666.5,1450.1,1672.1,1474.4,1672.1,1500z"/>
	<path class="st2" d="M1791.1,1114.1c-3.3-0.1-6.6-0.1-9.9-0.1v-7.2C1784.5,1109.2,1787.8,1111.6,1791.1,1114.1z"/>
	<path class="st2" d="M1893.1,1781.2c-2.4,3.3-4.8,6.6-7.2,9.8c0.1-3.3,0.1-6.5,0.1-9.8H1893.1z"/>
	<path class="st2" d="M1672.1,1500c0,25.6-5.6,50-15.7,71.8c-20.2,9-41.2,16.2-63,21.7c-29.9,7.4-61.2,11.4-93.4,11.4
		s-63.5-3.9-93.4-11.4c-21.8-5.4-42.9-12.7-63-21.7c-10.1-21.9-15.7-46.2-15.7-71.8c0-25.6,5.6-49.9,15.6-71.7
		c17.2-37.4,47.4-67.6,84.8-84.8c21.8-10,46.2-15.6,71.8-15.6s49.9,5.6,71.8,15.6c37.4,17.2,67.6,47.4,84.8,84.8
		C1666.5,1450.1,1672.1,1474.4,1672.1,1500z"/>
	<path class="st2" d="M1874.6,1125.4c-26.8-6.7-54.8-10.5-83.5-11.2c-3.3-0.1-6.6-0.1-9.9-0.1v-7.2
		c-56.8-40.7-122.9-69.4-194.4-82.4l-180.2-180.2c29.9-7.4,61.2-11.4,93.4-11.4c110.9,0,210.8,46.7,281.2,121.6
		C1825.7,1001.8,1858.4,1060.3,1874.6,1125.4z"/>
	<path class="st2" d="M1672.1,1500c0,25.6-5.6,50-15.7,71.8c-17.2,37.3-47.3,67.5-84.7,84.6c-21.8,10-46.2,15.6-71.8,15.6
		s-49.9-5.6-71.8-15.6c-37.4-17.2-67.5-47.3-84.7-84.6c-10.1-21.9-15.7-46.2-15.7-71.8c0-25.6,5.6-49.9,15.6-71.7
		c20.2-9,41.3-16.3,63.1-21.7c29.9-7.4,61.2-11.4,93.4-11.4s63.5,3.9,93.4,11.4c21.8,5.4,42.9,12.7,63.1,21.7
		C1666.5,1450.1,1672.1,1474.4,1672.1,1500z"/>
	<path class="st2" d="M1593.4,2155.9c-29.9,7.4-61.2,11.4-93.4,11.4c-110.9,0-210.8-46.7-281.2-121.6
		c-44.6-47.3-77.3-105.9-93.4-171.1c26.8,6.7,54.8,10.5,83.5,11.3c3.3,0.1,6.6,0.1,9.9,0.1v7.2c56.8,40.7,122.8,69.4,194.3,82.4
		L1593.4,2155.9z"/>
	<path class="st2" d="M1672.1,1500c0,25.6-5.6,50-15.7,71.8c-17.2,37.3-47.3,67.5-84.7,84.6c-21.8,10-46.2,15.6-71.8,15.6
		s-49.9-5.6-71.8-15.6c-8.9-20.2-16.2-41.2-21.6-63c-7.5-29.9-11.4-61.3-11.4-93.5c0-32.2,3.9-63.5,11.4-93.4
		c5.4-21.8,12.7-42.9,21.7-63.1c21.8-10,46.2-15.6,71.8-15.6s49.9,5.6,71.8,15.6c37.4,17.2,67.6,47.4,84.8,84.8
		C1666.5,1450.1,1672.1,1474.4,1672.1,1500z"/>
	<path class="st2" d="M2167.2,1500c0,110.9-46.8,210.9-121.6,281.2c-47.3,44.5-105.9,77.2-170.9,93.4c6.7-26.8,10.5-54.8,11.2-83.5
		c0.1-3.3,0.1-6.5,0.1-9.8h7.1c40.7-56.8,69.5-122.8,82.4-194.3l180.3-180.3C2163.2,1436.5,2167.2,1467.8,2167.2,1500z"/>
	<path class="st2" d="M1125.4,1125.4c-6.7,26.8-10.6,54.8-11.3,83.5c0,0,0,0,0,0c-0.1,3.3-0.1,6.6-0.1,10h-7.2
		c-40.7,56.8-69.4,122.9-82.4,194.4l-180.2,180.2c-7.5-29.9-11.4-61.2-11.4-93.5c0-110.8,46.7-210.7,121.5-281.1
		C1001.7,1174.3,1060.3,1141.6,1125.4,1125.4z"/>
	<path class="st2" d="M1604.8,1500c0,32.2-4,63.6-11.4,93.5c-5.4,21.8-12.7,42.8-21.6,63c-21.8,10-46.2,15.6-71.8,15.6
		s-49.9-5.6-71.8-15.6c-37.4-17.2-67.5-47.3-84.7-84.6c-10.1-21.9-15.7-46.2-15.7-71.8c0-25.6,5.6-49.9,15.6-71.7
		c17.2-37.4,47.4-67.6,84.8-84.8c21.8-10,46.2-15.6,71.8-15.6s49.9,5.6,71.8,15.6c9,20.2,16.3,41.3,21.7,63.1
		C1600.9,1436.5,1604.8,1467.8,1604.8,1500z"/>
	<path class="st2" d="M1672.1,1500c0,25.6-5.6,50-15.7,71.8c-17.2,37.3-47.3,67.5-84.7,84.6c-21.8,10-46.2,15.6-71.8,15.6
		s-49.9-5.6-71.8-15.6c-37.4-17.2-67.5-47.3-84.7-84.6c-10.1-21.9-15.7-46.2-15.7-71.8c0-25.6,5.6-49.9,15.6-71.7
		c17.2-37.4,47.4-67.6,84.8-84.8c21.8-10,46.2-15.6,71.8-15.6s49.9,5.6,71.8,15.6c37.4,17.2,67.6,47.4,84.8,84.8
		C1666.5,1450.1,1672.1,1474.4,1672.1,1500z"/>
	<polyline class="st2" points="566.3,1871.3 656.4,1781.2 844.2,1593.5 	"/>
	<polyline class="st2" points="1593.4,2155.9 1781.2,2343.6 1873.6,2436 	"/>
	<polyline class="st2" points="2155.8,1406.6 2343.6,1218.9 2432.7,1129.7 	"/>
	<polyline class="st2" points="1132.5,570.2 1218.8,656.5 1406.6,844.3 	"/>
	<line class="st3" x1="1781.2" y1="564.6" x2="1781.2" y2="2436"/>
	<line class="st3" x1="2435.4" y1="1781.2" x2="566.3" y2="1781.2"/>
	<line class="st3" x1="1218.8" y1="2436" x2="1218.8" y2="570.2"/>
	<line class="st3" x1="566.3" y1="1218.9" x2="2435.4" y2="1218.9"/>
	<g>
		<g>
			<path class="st4" d="M887.2,1377.1c-20.7-19.5-46.3-33.8-74.8-40.9c-11.7-2.9-23.9-4.6-36.5-4.9c-14.8-10.6-35.4-22.5-52.7-29.1
				c-3.5-0.2-6.9-0.3-10.4-0.3c-64.5,0-152.6,33.5-189.7,86.5l4.3-6.7c8.5-13.4,18.6-25.9,30-37.3c20.2-20.2,43.7-36,69.9-47.1
				c16.2-6.8,33-11.7,50.2-14.5l-69.6-69.6c-31.9,7.9-60.2,25-82.1,48.2c-19.5,20.7-33.7,46.3-40.8,74.7
				c-2.9,11.7-4.6,23.9-4.9,36.5c0,0,0,0,0,0c0,0,0,0,0,0l0,0c-10.5,14.6-22.3,35-28.8,52c-0.3,4.8-0.5,9.6-0.5,14.4
				c0,67.6,36,156.7,93.1,193.4l-6.6-3.9c-15.9-9.4-30.7-20.8-43.9-34.1c-20.2-20.2-36-43.7-47.1-69.9
				c-7.2-17.1-12.2-34.8-14.9-53.1l-69.2,69.2c7.9,31.9,25,60.2,48.2,82.1c20.7,19.4,46.3,33.7,74.7,40.8c11.7,2.9,24,4.6,36.5,4.9
				c14.9,10.7,35.6,22.7,53.1,29.2c2.3,0.1,4.7,0.1,7,0.1c54,0,128.8-23.9,172.7-61.9l0,0c-5.3,6.8-11.1,13.3-17.2,19.4
				c-20.2,20.2-43.7,36-69.9,47.1c-15.4,6.5-31.3,11.2-47.7,14l70.1,70.1c31.9-7.9,60.2-25,82.1-48.2c19.5-20.7,33.8-46.3,40.8-74.8
				c2.9-11.7,4.6-23.9,4.9-36.5c10.6-14.8,22.5-35.3,29-52.5c0.2-3.8,0.3-7.6,0.3-11.4c0-65.4-34.3-153.8-88.5-190.9l6.7,4.2
				c14.1,8.8,27.4,19.3,39.3,31.2c20.2,20.2,36,43.7,47.1,69.9c6.9,16.4,11.8,33.5,14.6,50.9l69.5-69.5
				C927.4,1427.3,910.4,1398.9,887.2,1377.1z M692,1575.1h-86.7l-43.4-75.1l43.4-75.1H692l43.4,75.1L692,1575.1z"/>
			<g>
				<path class="st5" d="M674.9,1535.2c1.2,0,1.8-1.3,2.1-4.2l6.2-78.4c-7.9-5.7-17.2-9.6-27.4-10.8c4.4,3.6,6.9,11,8.4,22.4
					l8.7,67.1C673.1,1534.3,673.8,1535.2,674.9,1535.2z"/>
				<path class="st5" d="M640.4,1441.9c-10.2,1.5-19.5,5.5-27.3,11.5l5.6,77.5c0.2,2.9,0.9,4.2,2.1,4.2c1,0,1.7-0.9,2.1-3.8
					l8.9-66.2C633.3,1453.3,635.9,1445.7,640.4,1441.9z"/>
				<path class="st5" d="M698.1,1468.5l-5.9,70.7c9.4-10.4,15.1-24.1,15.1-39.2C707.2,1488.3,703.9,1477.6,698.1,1468.5z"/>
				<path class="st5" d="M597.9,1470.7c-4.9,8.6-7.8,18.5-7.8,29.2c0,13.9,4.9,26.7,13,36.7L597.9,1470.7z"/>
				<path class="st5" d="M658.5,1540.3l-8.4-68c-0.3-2.7-0.9-3.6-1.9-3.6c-0.9,0-1.6,0.9-1.9,3.6l-9.1,68c-0.9,6.7-2.1,12-3.7,16.2
					c4.9,1.3,10,2,15.2,2c4.7,0,9.2-0.6,13.6-1.6C660.6,1552.6,659.3,1547.1,658.5,1540.3z"/>
			</g>
		</g>
		<g>
			<g>
				<path class="st4" d="M1173.2,1453.2l-28.7,101.9c-7.9,28.4-25.1,41.2-53.5,41.2c-33.6,0-49.7-17.8-53.5-41.2l-22.9-138.5
					c-0.5-3.6-0.8-6-0.8-8.7h52.2c0,1.9,0.3,4.6,0.5,7.1l19.4,126.2c0.5,4.4,2.7,6.3,6.6,6.3c3.3,0,5.5-1.4,6.6-5.7l28.1-99.2
					c7.6-26.5,22.4-38.8,52.2-38.8c29.5,0,43.4,12.3,50.3,37.4l27.6,100.5c1.1,4.4,3.3,5.7,6.6,5.7c3.8,0,5.7-1.9,6.6-6.3l21-126.2
					c0.5-2.7,0.5-5.5,0.5-7.1h51.6c0,2.7-0.3,4.9-0.8,8.7l-24.6,138.8c-4.4,24.3-20.8,41-54.1,41c-27.9,0-44.8-13.4-52.2-41.2
					l-26.5-101.9c-1.1-4.1-3-5.5-6-5.5S1174.3,1449.1,1173.2,1453.2z"/>
				<path class="st4" d="M1447.2,1592.5c-33.1,0-57.4-11.5-74.3-30c-14.8-16.1-23.8-38-23.8-62.3c0-26.8,11.5-51.1,29.8-68
					c16.4-15,38.5-24.3,68.3-24.3h136.9c29.8,0,51.9,9.3,68.3,24.3c18.3,16.9,29.8,41.2,29.8,68c0,24.3-9,46.2-23.8,62.3
					c-16.9,18.6-41.2,30-74.3,30H1447.2z M1447.2,1456.7c-16.7,0-27,4.6-35,12c-8.5,7.9-13.7,19.4-13.7,31.7
					c0,11.2,4.4,21.6,11.5,29.2c7.9,8.7,19.7,14.2,37.2,14.2h136.9c17.5,0,29.2-5.5,37.2-14.2c7.1-7.6,11.5-18,11.5-29.2
					c0-12.3-5.2-23.8-13.7-31.7c-7.9-7.4-18.3-12-35-12H1447.2z"/>
				<path class="st4" d="M1760.5,1592.5h-49.4v-173.2c0-7.6,4.1-11.5,12.3-11.5h131.1c22.7,0,37.2,6.8,47.3,17.5
					c9,9.6,14.8,22.4,14.8,36.3c0,14.8-4.4,28.7-17.5,38.2c12.3,7.4,17.8,17.2,17.8,38.2v36.9c0,7.9,0.3,12.3,0.8,17.5h-50
					c-0.5-4.1-0.8-8.2-0.8-12.3v-36.9c0-11.7-5.7-16.4-20.2-16.4h-86V1592.5z M1847.9,1484.8c6.8,0,10.9-2.5,13.9-6
					c2.2-2.7,3.6-6,3.6-9.6c0-3.8-1.4-7.6-4.1-10.4c-2.7-3-7.1-4.9-13.4-4.9h-83.3c-2.7,0-4.1,1.6-4.1,4.1v26.8H1847.9z"/>
				<path class="st4" d="M2144.6,1407.8v48.9h-80.9v135.8H2014v-135.8h-81.1v-48.9H2144.6z"/>
				<path class="st4" d="M2357.9,1407.8v48.9h-140.4c-3,0-4.4,1.6-4.4,4.6v21h144v35.5h-144v22.4c0,3.3,1.4,4.9,4.4,4.9h140.4v47.3
					h-168.3c-17.2,0-26-8.5-26-25.7v-134.1c0-16.7,8.7-24.9,26.2-24.9H2357.9z"/>
				<path class="st4" d="M2628.1,1407.8c-1.4,1.9-3.3,4.1-5.5,6l-82.8,80l93.4,92.9c1.9,1.9,3.3,3.8,4.6,5.7h-70.8
					c-1.4-2.2-2.7-3.8-4.4-5.5l-58.7-61.2l-62,61.2c-1.9,1.9-3.6,3.8-4.9,5.5h-65c1.4-2.2,2.7-3.6,4.9-5.7l95.3-92.9l-82.5-80
					c-2.5-2.2-3.8-3.8-5.2-6h68.8c1.1,1.6,2.7,3.8,4.6,6l48.9,49.7l51.6-49.7c2.2-1.9,3.8-4.1,5.2-6H2628.1z"/>
			</g>
			<g>
				<polygon class="st5" points="1460.8,1469.8 1467.7,1531.6 1474.9,1531.6 1487.7,1469.8 				"/>
				<polygon class="st5" points="1541.1,1469.8 1553.4,1531.6 1560.6,1531.6 1568.1,1469.8 				"/>
				<path class="st5" d="M1435,1470.9c-5.4,1.3-9.7,3.8-13.3,7c-6.1,5.7-10,13.8-10,22.8c0,8.1,3,15.4,7.9,20.8
					c5.3,5.8,12.7,9.5,22.6,10L1435,1470.9z"/>
				<path class="st5" d="M1609.6,1478c-4.1-3.8-9.3-6.5-15.8-7.6l-7.9,61.2h0.9c11.1,0,19.2-3.8,24.9-10.1
					c4.9-5.4,7.9-12.7,7.9-20.8C1619.6,1491.8,1615.7,1483.6,1609.6,1478z"/>
				<path class="st5" d="M1517.8,1472.8c-0.3-1.4-0.6-2.3-1.1-2.9h-3.8c-0.5,0.6-0.9,1.5-1.1,2.9l-12.1,58.8h29.3L1517.8,1472.8z"/>
			</g>
		</g>
	</g>
</g>
<g id="Camada_2">
</g>
</svg>
